<svg width="188" height="189" viewBox="0 0 188 189" fill="none" xmlns="http://www.w3.org/2000/svg">
<g filter="url(#filter0_d_2679_1931)">
<ellipse cx="94" cy="94.2713" rx="75" ry="75.0001" fill="#252525"/>
<g clip-path="url(#clip0_2679_1931)">
<path d="M94.4736 62.0491C93.6322 62.0491 92.9502 62.7311 92.9502 63.5725V66.4582C92.9502 67.2996 93.6322 67.9816 94.4736 67.9816C95.315 67.9816 95.9971 67.2996 95.9971 66.4582V63.5725C95.9971 62.7311 95.315 62.0491 94.4736 62.0491Z" fill="#9792D0"/>
<path d="M94.4736 121.638C93.6322 121.638 92.9502 122.32 92.9502 123.162V126.047C92.9502 126.889 93.6322 127.571 94.4736 127.571C95.315 127.571 95.9971 126.889 95.9971 126.047V123.162C95.9971 122.32 95.315 121.638 94.4736 121.638Z" fill="#9792D0"/>
<path d="M125.711 93.2866H122.825C121.983 93.2866 121.301 93.9687 121.301 94.8101C121.301 95.6515 121.983 96.3335 122.825 96.3335H125.711C126.552 96.3335 127.234 95.6515 127.234 94.8101C127.234 93.9687 126.552 93.2866 125.711 93.2866Z" fill="#9792D0"/>
<path d="M66.1222 93.2866H63.2363C62.3949 93.2866 61.7129 93.9687 61.7129 94.8101C61.7129 95.6515 62.3949 96.3335 63.2363 96.3335H66.1222C66.9636 96.3335 67.6456 95.6515 67.6456 94.8101C67.6456 93.9687 66.9636 93.2866 66.1222 93.2866Z" fill="#9792D0"/>
<path d="M115.484 71.6444L113.444 73.6851C112.849 74.28 112.849 75.2446 113.444 75.8397C113.741 76.1372 114.131 76.2859 114.521 76.2859C114.911 76.2859 115.301 76.1372 115.598 75.8397L117.639 73.799C118.234 73.2041 118.234 72.2395 117.639 71.6444C117.044 71.0495 116.079 71.0495 115.484 71.6444Z" fill="#9792D0"/>
<path d="M73.3486 113.78L71.308 115.821C70.7131 116.416 70.7131 117.38 71.308 117.976C71.6055 118.273 71.9954 118.422 72.3852 118.422C72.7751 118.422 73.1651 118.273 73.4624 117.976L75.5031 115.935C76.098 115.34 76.098 114.375 75.5031 113.78C74.9082 113.185 73.9435 113.185 73.3486 113.78Z" fill="#9792D0"/>
<path d="M115.598 113.78C115.003 113.185 114.039 113.185 113.444 113.78C112.849 114.375 112.849 115.34 113.444 115.935L115.484 117.976C115.782 118.273 116.172 118.422 116.562 118.422C116.951 118.422 117.341 118.273 117.639 117.976C118.234 117.381 118.234 116.416 117.639 115.821L115.598 113.78Z" fill="#9792D0"/>
<path d="M73.4626 71.6444C72.8677 71.0495 71.903 71.0495 71.308 71.6444C70.7131 72.2393 70.7131 73.204 71.308 73.799L73.3486 75.8397C73.6462 76.1372 74.036 76.2859 74.4259 76.2859C74.8157 76.2859 75.2057 76.1372 75.5031 75.8397C76.098 75.2448 76.098 74.2801 75.5031 73.6851L73.4626 71.6444Z" fill="#9792D0"/>
<path d="M122.051 66.8965C114.685 59.5302 104.891 55.4736 94.4736 55.4736C84.0564 55.4736 74.2626 59.5302 66.8965 66.8965C59.5302 74.2626 55.4736 84.0564 55.4736 94.4736C55.4736 104.891 59.5302 114.685 66.8965 122.051C74.2626 129.417 84.0564 133.474 94.4736 133.474C104.891 133.474 114.685 129.417 122.051 122.051C129.417 114.685 133.474 104.891 133.474 94.4736C133.474 84.0564 129.417 74.2626 122.051 66.8965ZM94.4736 130.427C74.649 130.427 58.5205 114.298 58.5205 94.4736C58.5205 74.649 74.649 58.5205 94.4736 58.5205C114.298 58.5205 130.427 74.649 130.427 94.4736C130.427 114.298 114.298 130.427 94.4736 130.427Z" fill="#9792D0"/>
<path d="M94.4733 116.913C106.866 116.913 116.913 106.867 116.913 94.4737C116.913 82.0806 106.866 72.0341 94.4733 72.0341C82.0802 72.0341 72.0337 82.0806 72.0337 94.4737C72.0337 106.867 82.0802 116.913 94.4733 116.913Z" fill="#9792D0"/>
<path d="M97.055 93.3148C96.568 93.1427 96.1146 92.9801 95.6946 92.8275V85.0729C96.9629 85.2795 97.8949 85.8491 98.3673 86.5223C98.8506 87.211 99.8007 87.3774 100.489 86.8942C101.178 86.4108 101.345 85.4608 100.861 84.772C99.8946 83.3944 98.0782 82.2632 95.6946 82.0003V81.0818C95.6946 80.2404 95.0126 79.5583 94.1712 79.5583C93.3298 79.5583 92.6477 80.2404 92.6477 81.0818V82.1287C92.2078 82.2097 91.7564 82.3185 91.2948 82.4576C88.9046 83.1776 87.1001 85.5065 86.9062 88.121C86.7159 90.6857 88.0901 92.9184 90.5816 94.0935C91.0134 94.297 91.7286 94.5907 92.6477 94.9438V104.01C91.2171 103.704 89.831 103.063 88.9814 102.008C88.4537 101.353 87.4945 101.249 86.8393 101.777C86.1841 102.305 86.0808 103.264 86.6085 103.919C88.1335 105.812 90.4494 106.763 92.6477 107.113V107.866C92.6477 108.707 93.3298 109.389 94.1712 109.389C95.0126 109.389 95.6946 108.707 95.6946 107.866V107.235C95.7053 107.234 95.7159 107.233 95.7264 107.232C100.32 106.831 102.302 103.975 102.624 101.436C103.065 97.9689 100.774 94.6294 97.055 93.3148ZM91.881 91.3374C90.0666 90.4819 89.8891 89.0961 89.9447 88.3461C90.0458 86.9831 90.9831 85.7335 92.1735 85.375C92.3336 85.3267 92.4917 85.2834 92.6476 85.2449V91.6675C92.3008 91.5256 92.0458 91.415 91.881 91.3374ZM99.6016 101.052C99.3851 102.756 97.9313 103.911 95.6946 104.173V96.0653C95.8086 96.1058 95.9236 96.1466 96.0397 96.1876C98.7881 97.1589 99.8126 99.3902 99.6016 101.052Z" fill="#1E1E1E"/>
</g>
</g>
<defs>
<filter id="filter0_d_2679_1931" x="0" y="0.27124" width="188" height="188" filterUnits="userSpaceOnUse" color-interpolation-filters="sRGB">
<feFlood flood-opacity="0" result="BackgroundImageFix"/>
<feColorMatrix in="SourceAlpha" type="matrix" values="0 0 0 0 0 0 0 0 0 0 0 0 0 0 0 0 0 0 127 0" result="hardAlpha"/>
<feOffset/>
<feGaussianBlur stdDeviation="9.5"/>
<feComposite in2="hardAlpha" operator="out"/>
<feColorMatrix type="matrix" values="0 0 0 0 0 0 0 0 0 0 0 0 0 0 0 0 0 0 0.11 0"/>
<feBlend mode="normal" in2="BackgroundImageFix" result="effect1_dropShadow_2679_1931"/>
<feBlend mode="normal" in="SourceGraphic" in2="effect1_dropShadow_2679_1931" result="shape"/>
</filter>
<clipPath id="clip0_2679_1931">
<rect width="78" height="78" fill="white" transform="translate(55.4736 55.4736)"/>
</clipPath>
</defs>
</svg>
