<svg width="188" height="189" viewBox="0 0 188 189" fill="none" xmlns="http://www.w3.org/2000/svg">
<g filter="url(#filter0_d_2679_1913)">
<ellipse cx="94" cy="94.2713" rx="75" ry="75.0001" fill="#252525"/>
<path d="M94.5269 67.0016C79.5905 67.0016 67.439 79.1531 67.439 94.0895C67.439 109.026 79.5905 121.178 94.5269 121.178C109.463 121.178 121.615 109.026 121.615 94.0895C121.615 79.1531 109.463 67.0016 94.5269 67.0016ZM94.5269 118.053C81.3136 118.053 70.564 107.303 70.564 94.0895C70.564 80.8763 81.3136 70.1266 94.5269 70.1266C107.74 70.1266 118.49 80.8763 118.49 94.0895C118.49 107.303 107.74 118.053 94.5269 118.053Z" fill="#9792D0"/>
<path d="M132.393 99.4614C133.393 97.9058 134.527 96.1426 134.527 94.0898C134.527 92.037 133.393 90.2739 132.393 88.7183C131.723 87.677 131.09 86.6936 130.887 85.8019C130.67 84.8508 130.815 83.655 130.969 82.3892C131.198 80.4956 131.435 78.5376 130.573 76.7533C129.695 74.9375 127.921 73.8495 126.355 72.8895C125.283 72.2319 124.269 71.6105 123.68 70.8733C123.084 70.1284 122.7 68.9986 122.292 67.8025C121.703 66.0714 121.035 64.1095 119.468 62.8598C117.909 61.6167 115.851 61.4011 114.035 61.2108C112.771 61.0784 111.577 60.9534 110.708 60.5347C109.869 60.1303 109.042 59.2886 108.168 58.3975C106.877 57.0816 105.413 55.59 103.427 55.1392C101.516 54.7055 99.67 55.3676 97.8848 56.0084C96.6709 56.4439 95.5242 56.8555 94.5273 56.8555C93.5305 56.8555 92.3837 56.4439 91.1698 56.0083C89.3848 55.3676 87.5391 54.7053 85.6273 55.1391C83.6419 55.5897 82.1781 57.0812 80.8867 58.3973C80.0122 59.2884 79.1863 60.1301 78.3469 60.5345C77.4778 60.9531 76.2842 61.0781 75.0203 61.2106C73.2042 61.4009 71.1459 61.6166 69.5869 62.8597C68.0195 64.1094 67.3516 66.0712 66.7623 67.8022C66.3552 68.9984 65.9705 70.1283 65.3748 70.8731C64.7855 71.6103 63.772 72.2316 62.6992 72.8894C61.1337 73.8494 59.3594 74.9373 58.482 76.7531C57.6198 78.5376 57.8569 80.4956 58.0861 82.3892C58.2394 83.6551 58.3842 84.8508 58.1677 85.8019C57.9647 86.6936 57.332 87.677 56.6622 88.7183C55.6616 90.2739 54.5273 92.037 54.5273 94.0898C54.5273 96.1426 55.6616 97.9058 56.6622 99.4612C57.332 100.503 57.9647 101.486 58.1677 102.378C58.3842 103.329 58.2394 104.525 58.0861 105.79C57.8569 107.684 57.6197 109.642 58.4819 111.426C59.3592 113.242 61.1336 114.33 62.6992 115.29C63.772 115.948 64.7853 116.569 65.3747 117.306C65.9703 118.051 66.355 119.181 66.7622 120.377C67.3514 122.108 68.0194 124.07 69.5867 125.32C71.1459 126.563 73.2042 126.779 75.0202 126.969C76.2839 127.101 77.4777 127.226 78.3467 127.645C79.1861 128.049 80.0122 128.891 80.8867 129.782C82.1781 131.098 83.6419 132.59 85.6273 133.04C87.5392 133.474 89.3848 132.812 91.1698 132.171C92.3839 131.736 93.5305 131.324 94.5273 131.324C95.5242 131.324 96.6709 131.736 97.8848 132.171C99.2714 132.669 100.694 133.18 102.156 133.18C102.577 133.18 103 133.137 103.427 133.04C105.413 132.59 106.877 131.098 108.168 129.782C109.042 128.891 109.868 128.05 110.708 127.645C111.577 127.226 112.771 127.101 114.034 126.969C115.85 126.779 117.909 126.563 119.468 125.32C121.035 124.07 121.703 122.108 122.292 120.377C122.7 119.181 123.084 118.051 123.68 117.307C124.269 116.569 125.283 115.948 126.355 115.29C127.921 114.33 129.695 113.242 130.573 111.427C131.435 109.642 131.198 107.684 130.969 105.79C130.815 104.525 130.67 103.329 130.887 102.378C131.09 101.486 131.723 100.503 132.393 99.4614ZM129.764 97.7706C128.978 98.9931 128.165 100.257 127.84 101.684C127.503 103.165 127.688 104.691 127.866 106.166C128.049 107.679 128.222 109.108 127.759 110.067C127.28 111.057 126.038 111.819 124.722 112.626C123.467 113.395 122.17 114.191 121.239 115.355C120.302 116.527 119.81 117.972 119.334 119.37C118.839 120.824 118.372 122.197 117.52 122.876C116.675 123.55 115.234 123.701 113.709 123.861C112.235 124.015 110.71 124.175 109.352 124.83C108.02 125.471 106.961 126.55 105.937 127.593C104.851 128.7 103.825 129.745 102.735 129.993C101.713 130.225 100.366 129.742 98.9402 129.23C97.528 128.723 96.0677 128.199 94.527 128.199C92.9864 128.199 91.5261 128.723 90.1139 129.23C88.688 129.742 87.3411 130.225 86.3186 129.993C85.2288 129.745 84.2028 128.7 83.1167 127.593C82.0927 126.55 81.0338 125.471 79.7025 124.83C78.3436 124.175 76.8194 124.015 75.3453 123.861C73.82 123.701 72.3794 123.55 71.5345 122.876C70.6825 122.197 70.215 120.824 69.7202 119.37C69.2442 117.972 68.752 116.527 67.815 115.355C66.8842 114.191 65.587 113.395 64.3323 112.626C63.0166 111.819 61.7737 111.057 61.2953 110.067C60.8319 109.108 61.0048 107.679 61.188 106.166C61.3667 104.691 61.5514 103.165 61.2142 101.684C60.8894 100.257 60.0763 98.993 59.2898 97.7705C58.448 96.4612 57.6523 95.2242 57.6523 94.0898C57.6523 92.9553 58.448 91.7184 59.2903 90.4089C60.0767 89.1864 60.8898 87.9223 61.2147 86.4955C61.5519 85.0144 61.3672 83.4887 61.1884 82.0134C61.0053 80.5006 60.8323 79.0717 61.2958 78.1125C61.7744 77.1222 63.017 76.3601 64.3328 75.5534C65.5873 74.7842 66.8847 73.9887 67.8155 72.8248C68.7525 71.6531 69.2447 70.2073 69.7206 68.8094C70.2156 67.3556 70.6831 65.9825 71.5352 65.3031C72.3802 64.6294 73.8208 64.4786 75.3461 64.3187C76.8202 64.1644 78.3442 64.0047 79.7033 63.3501C81.0345 62.7089 82.0933 61.6298 83.1173 60.5864C84.2034 59.4797 85.2294 58.4344 86.3192 58.1869C87.3414 57.955 88.6886 58.4381 90.1145 58.9498C91.5264 59.4564 92.9867 59.9805 94.5273 59.9805C96.068 59.9805 97.5283 59.4564 98.9405 58.9495C100.366 58.438 101.713 57.9547 102.736 58.1866C103.826 58.4339 104.852 59.4794 105.938 60.5861C106.962 61.6295 108.021 62.7086 109.352 63.3498C110.711 64.0044 112.235 64.1641 113.709 64.3186C115.234 64.4784 116.675 64.6294 117.52 65.303C118.372 65.9823 118.84 67.3555 119.334 68.8094C119.81 70.2073 120.302 71.653 121.24 72.8248C122.17 73.9887 123.467 74.7842 124.722 75.5534C126.038 76.3601 127.281 77.122 127.759 78.1125C128.223 79.0717 128.05 80.5006 127.867 82.0134C127.688 83.4887 127.503 85.0145 127.84 86.4955C128.165 87.9223 128.978 89.1864 129.765 90.4089C130.607 91.7184 131.402 92.9553 131.402 94.0898C131.402 95.2242 130.607 96.4612 129.764 97.7706Z" fill="#9792D0"/>
<path d="M94.5266 104.657L85.595 107.833L85.8557 98.3573L80.0752 90.8445L89.1677 88.1642L94.5266 80.3448L99.8855 88.1642L108.978 90.8445L103.198 98.3573L103.458 107.833L94.5266 104.657Z" fill="#C4C0F1"/>
</g>
<defs>
<filter id="filter0_d_2679_1913" x="0" y="0.27124" width="188" height="188" filterUnits="userSpaceOnUse" color-interpolation-filters="sRGB">
<feFlood flood-opacity="0" result="BackgroundImageFix"/>
<feColorMatrix in="SourceAlpha" type="matrix" values="0 0 0 0 0 0 0 0 0 0 0 0 0 0 0 0 0 0 127 0" result="hardAlpha"/>
<feOffset/>
<feGaussianBlur stdDeviation="9.5"/>
<feComposite in2="hardAlpha" operator="out"/>
<feColorMatrix type="matrix" values="0 0 0 0 0 0 0 0 0 0 0 0 0 0 0 0 0 0 0.07 0"/>
<feBlend mode="normal" in2="BackgroundImageFix" result="effect1_dropShadow_2679_1913"/>
<feBlend mode="normal" in="SourceGraphic" in2="effect1_dropShadow_2679_1913" result="shape"/>
</filter>
</defs>
</svg>
