<svg width="188" height="189" viewBox="0 0 188 189" fill="none" xmlns="http://www.w3.org/2000/svg">
<g filter="url(#filter0_d_2679_1902)">
<ellipse cx="94" cy="94.2713" rx="75" ry="75.0001" fill="#252525"/>
<path d="M118.273 104.092V104.337C118.273 105.2 118.973 105.9 119.836 105.9C120.699 105.9 121.398 105.2 121.398 104.337V104.212C124.909 103.776 126.44 101.499 126.698 99.4664C127.059 96.6266 125.199 93.8967 122.175 92.8278C121.902 92.7314 121.643 92.6391 121.398 92.5508V87.3969C122.051 87.5891 122.503 87.9187 122.722 88.2319C123.218 88.9383 124.193 89.1091 124.899 88.6133C125.606 88.1175 125.776 87.1431 125.28 86.4367C124.532 85.3705 123.173 84.4812 121.398 84.1975V83.8405C121.398 82.9776 120.699 82.278 119.836 82.278C118.973 82.278 118.273 82.9776 118.273 83.8405V84.3172C118.026 84.3716 117.775 84.4367 117.52 84.5136C115.538 85.1108 114.041 87.037 113.881 89.1978C113.723 91.3308 114.859 93.1845 116.92 94.1561C117.216 94.2958 117.681 94.4892 118.273 94.72V100.882C117.439 100.637 116.671 100.223 116.173 99.6052C115.632 98.9328 114.648 98.8272 113.977 99.3683C113.304 99.9097 113.198 100.893 113.74 101.565C114.898 103.003 116.609 103.769 118.273 104.092ZM123.598 99.0727C123.469 100.087 122.679 100.787 121.399 101.047V95.8764C123.096 96.5884 123.733 98.0075 123.598 99.0727ZM118.253 91.3298C117.138 90.8041 116.955 90.0059 116.998 89.4291C117.058 88.6162 117.595 87.842 118.274 87.5591V91.3395C118.266 91.3362 118.26 91.333 118.253 91.3298Z" fill="#C4C0F1"/>
<path d="M132.438 69H55.5625C54.6995 69 54 69.6997 54 70.5625V117.617C54 118.48 54.6995 119.18 55.5625 119.18H132.438C133.3 119.18 134 118.48 134 117.617V70.5625C134 69.6995 133.3 69 132.438 69ZM130.875 116.055H57.125V72.125H130.875V116.055Z" fill="#9792D0"/>
<path d="M107.036 110.312C107.899 110.312 108.599 109.613 108.599 108.75V106.842C108.599 105.979 107.899 105.279 107.036 105.279C106.173 105.279 105.474 105.979 105.474 106.842V108.75C105.474 109.613 106.173 110.312 107.036 110.312Z" fill="#9792D0"/>
<path d="M107.036 101.175C107.899 101.175 108.599 100.475 108.599 99.6124V97.7041C108.599 96.8413 107.899 96.1416 107.036 96.1416C106.173 96.1416 105.474 96.8413 105.474 97.7041V99.6124C105.474 100.475 106.173 101.175 107.036 101.175Z" fill="#9792D0"/>
<path d="M107.036 92.0372C107.899 92.0372 108.599 91.3375 108.599 90.4747V88.5664C108.599 87.7036 107.899 87.0039 107.036 87.0039C106.173 87.0039 105.474 87.7036 105.474 88.5664V90.4747C105.474 91.3377 106.173 92.0372 107.036 92.0372Z" fill="#9792D0"/>
<path d="M107.036 82.8995C107.899 82.8995 108.599 82.2 108.599 81.337V79.4287C108.599 78.5659 107.899 77.8662 107.036 77.8662C106.173 77.8662 105.474 78.5659 105.474 79.4287V81.337C105.474 82.1998 106.173 82.8995 107.036 82.8995Z" fill="#9792D0"/>
<path d="M99.8487 86.1067C99.9697 84.7396 99.8797 83.573 99.0211 82.6735C95.9111 79.4156 88.5618 83.1753 84.9276 86.0535C84.3709 85.6597 83.7228 85.3071 83.0206 85.1574C82.4548 84.9814 81.8534 84.8866 81.2298 84.8866C80.6267 84.8866 80.0443 84.9753 79.4949 85.1403C78.7712 85.2713 78.1034 85.6064 77.5318 86.0105C73.8976 83.1325 66.5485 79.4856 63.4385 82.7435C62.5799 83.643 62.4898 84.7394 62.6109 86.1066L62.3535 95.6771C62.583 102.816 70.7848 100.508 75.9998 97.5472V106.766L81.2298 103.838L86.4598 106.766V97.5472C91.6748 100.508 99.8765 102.816 100.106 95.6771L99.8487 86.1067Z" fill="#C4C0F1"/>
</g>
<defs>
<filter id="filter0_d_2679_1902" x="0" y="0.27124" width="188" height="188" filterUnits="userSpaceOnUse" color-interpolation-filters="sRGB">
<feFlood flood-opacity="0" result="BackgroundImageFix"/>
<feColorMatrix in="SourceAlpha" type="matrix" values="0 0 0 0 0 0 0 0 0 0 0 0 0 0 0 0 0 0 127 0" result="hardAlpha"/>
<feOffset/>
<feGaussianBlur stdDeviation="9.5"/>
<feComposite in2="hardAlpha" operator="out"/>
<feColorMatrix type="matrix" values="0 0 0 0 0 0 0 0 0 0 0 0 0 0 0 0 0 0 0.07 0"/>
<feBlend mode="normal" in2="BackgroundImageFix" result="effect1_dropShadow_2679_1902"/>
<feBlend mode="normal" in="SourceGraphic" in2="effect1_dropShadow_2679_1902" result="shape"/>
</filter>
</defs>
</svg>
