<svg width="188" height="189" viewBox="0 0 188 189" fill="none" xmlns="http://www.w3.org/2000/svg">
<g filter="url(#filter0_d_2679_1919)">
<ellipse cx="94" cy="94.2713" rx="75" ry="75.0001" fill="#252525"/>
<g clip-path="url(#clip0_2679_1919)">
<path d="M109.893 82.179L114.495 77.5806C112.993 76.0794 112.993 73.6452 114.495 72.1439L107.089 64.7439C105.587 66.2452 103.151 66.2452 101.648 64.7439L84.1992 82.1792H109.893V82.179Z" fill="#C4C0F1"/>
<path d="M124.633 113.235V125.495C124.633 126.817 123.557 127.892 122.234 127.892H70.77V83.7209H122.234C123.557 83.7209 124.633 84.7958 124.633 86.1172V98.3775H127.717V86.1172C127.717 83.4545 125.807 81.2292 123.285 80.738L125.848 78.1762C126.734 77.2911 127.222 76.114 127.222 74.8621C127.222 73.6101 126.734 72.433 125.848 71.5479L107.684 53.3981C105.856 51.5714 102.882 51.5714 101.054 53.3981L73.7931 80.637H63.6309C60.6074 80.637 58.1475 83.0953 58.1475 86.1172V125.496C58.1475 128.517 60.6072 130.976 63.6309 130.976H122.234C125.257 130.976 127.717 128.517 127.717 125.496V113.235H124.633V113.235ZM103.233 55.5797C103.859 54.9542 104.878 54.9542 105.504 55.5797L123.668 73.7295C123.971 74.032 124.138 74.4343 124.138 74.8621C124.138 75.2898 123.971 75.6921 123.668 75.9946L119.023 80.6368H78.1563L103.233 55.5797ZM67.686 127.892H63.6309C62.3079 127.892 61.2314 126.817 61.2314 125.495V86.1172C61.2314 84.7958 62.3079 83.7209 63.6309 83.7209H67.686V127.892Z" fill="#9792D0"/>
<path d="M130.802 114.777H112.945C107.991 114.777 103.974 110.76 103.974 105.806C103.974 100.852 107.991 96.8352 112.945 96.8352H130.802V114.777Z" fill="#C4C0F1"/>
<path d="M113.974 110.93C111.147 110.93 108.847 108.631 108.847 105.806C108.847 102.981 111.147 100.683 113.974 100.683C116.8 100.683 119.1 102.981 119.1 105.806C119.1 108.631 116.8 110.93 113.974 110.93ZM113.974 103.766C112.847 103.766 111.931 104.681 111.931 105.806C111.931 106.931 112.847 107.846 113.974 107.846C115.1 107.846 116.016 106.931 116.016 105.806C116.016 104.681 115.1 103.766 113.974 103.766Z" fill="#9792D0"/>
</g>
</g>
<defs>
<filter id="filter0_d_2679_1919" x="0" y="0.27124" width="188" height="188" filterUnits="userSpaceOnUse" color-interpolation-filters="sRGB">
<feFlood flood-opacity="0" result="BackgroundImageFix"/>
<feColorMatrix in="SourceAlpha" type="matrix" values="0 0 0 0 0 0 0 0 0 0 0 0 0 0 0 0 0 0 127 0" result="hardAlpha"/>
<feOffset/>
<feGaussianBlur stdDeviation="9.5"/>
<feComposite in2="hardAlpha" operator="out"/>
<feColorMatrix type="matrix" values="0 0 0 0 0 0 0 0 0 0 0 0 0 0 0 0 0 0 0.07 0"/>
<feBlend mode="normal" in2="BackgroundImageFix" result="effect1_dropShadow_2679_1919"/>
<feBlend mode="normal" in="SourceGraphic" in2="effect1_dropShadow_2679_1919" result="shape"/>
</filter>
<clipPath id="clip0_2679_1919">
<rect width="78.9475" height="78.9475" fill="white" transform="translate(55 52.0281)"/>
</clipPath>
</defs>
</svg>
